<svg aria-hidden="true" style="width:0;height:0;position:absolute;overflow:hidden" xmlns="http://www.w3.org/2000/svg"><defs><symbol id="icon-Vector" viewBox="0 0 32 32"><path d="M4.03 4.028A13.62 13.62 0 0 1 13.716 0h.034-.002c3.673 0 7.127 1.431 9.724 4.028a13.618 13.618 0 0 1 4.031 9.689v.037-.002.035c0 3.457-1.285 6.613-3.403 9.018l.013-.015 7.639 7.637a.94.94 0 0 1-1.33 1.33l-7.634-7.637a13.584 13.584 0 0 1-8.997 3.385h-.043.002-.035a13.62 13.62 0 0 1-9.686-4.027l-.001-.001a13.618 13.618 0 0 1-4.031-9.689v-.037.002c0-3.673 1.431-7.127 4.03-9.724zm1.327 18.121c2.15 2.145 5.117 3.471 8.395 3.471s6.245-1.326 8.395-3.472c2.146-2.15 3.473-5.118 3.473-8.396s-1.327-6.246-3.473-8.396a11.8 11.8 0 0 0-8.375-3.473h-.018.001-.021a11.8 11.8 0 0 0-8.373 3.47c-2.147 2.15-3.474 5.119-3.474 8.397s1.327 6.247 3.474 8.397z"/></symbol><symbol id="icon-Polygon" viewBox="0 0 52 32"><path d="M26.006 32.009.02 2.002h51.971L26.005 32.009z"/></symbol></defs></svg>